<svg xmlns="http://www.w3.org/2000/svg" viewBox="0 0 1200 720" role="img" aria-labelledby="title desc">
  <title id="title">UP Site project placeholder</title>
  <desc id="desc">Abstract placeholder card for the UP Site project.</desc>
  <defs>
    <linearGradient id="bg" x1="0%" y1="0%" x2="100%" y2="100%">
      <stop offset="0%" stop-color="#111827" />
      <stop offset="100%" stop-color="#1f2937" />
    </linearGradient>
    <linearGradient id="accent" x1="0%" y1="0%" x2="100%" y2="0%">
      <stop offset="0%" stop-color="#38bdf8" />
      <stop offset="100%" stop-color="#facc15" />
    </linearGradient>
  </defs>
  <rect width="1200" height="720" fill="url(#bg)" />
  <circle cx="1030" cy="140" r="120" fill="#38bdf8" opacity="0.12" />
  <circle cx="180" cy="600" r="180" fill="#facc15" opacity="0.08" />
  <rect x="120" y="110" width="960" height="500" rx="32" fill="#0f172a" stroke="#334155" />
  <rect x="170" y="170" width="220" height="18" rx="9" fill="url(#accent)" />
  <rect x="170" y="215" width="410" height="54" rx="16" fill="#e5e7eb" opacity="0.92" />
  <rect x="170" y="290" width="520" height="20" rx="10" fill="#94a3b8" opacity="0.7" />
  <rect x="170" y="328" width="470" height="20" rx="10" fill="#94a3b8" opacity="0.55" />
  <rect x="170" y="380" width="160" height="52" rx="26" fill="url(#accent)" />
  <rect x="740" y="170" width="250" height="300" rx="24" fill="#111827" stroke="#475569" />
  <rect x="780" y="220" width="170" height="170" rx="20" fill="#1e293b" />
  <text x="170" y="520" fill="#f8fafc" font-family="Segoe UI, Arial, sans-serif" font-size="72" font-weight="700">UP Site</text>
  <text x="170" y="566" fill="#94a3b8" font-family="Segoe UI, Arial, sans-serif" font-size="28">Landing page project</text>
</svg>
